{
  "accessors": [
    {
      "bufferView": 2,
      "componentType": 5126,
      "count": 65532,
      "max": [
        2.4522664546966553,
        2.5722687244415283,
        2.3955578804016113
      ],
      "min": [
        -2.4431231021881104,
        0.0061331526376307011,
        -2.4998505115509033
      ],
      "type": "VEC3"
    },
    {
      "bufferView": 2,
      "byteOffset": 786384,
      "componentType": 5126,
      "count": 65532,
      "max": [
        1,
        1,
        1
      ],
      "min": [
        -1,
        -1,
        -1
      ],
      "type": "VEC3"
    },
    {
      "bufferView": 1,
      "componentType": 5126,
      "count": 65532,
      "max": [
        0.99995070695877075,
        0.99659937620162964
      ],
      "min": [
        0.0022019816096872091,
        0.0045747146941721439
      ],
      "type": "VEC2"
    },
    {
      "bufferView": 0,
      "componentType": 5125,
      "count": 357735,
      "max": [
        65531
      ],
      "min": [
        0
      ],
      "type": "SCALAR"
    },
    {
      "bufferView": 2,
      "byteOffset": 1572768,
      "componentType": 5126,
      "count": 65532,
      "max": [
        2.4499382972717285,
        2.5730826854705811,
        2.3573994636535645
      ],
      "min": [
        -2.441835880279541,
        0.0037849103100597858,
        -2.4975223541259766
      ],
      "type": "VEC3"
    },
    {
      "bufferView": 2,
      "byteOffset": 2359152,
      "componentType": 5126,
      "count": 65532,
      "max": [
        1,
        0.97452926635742188,
        1
      ],
      "min": [
        -1,
        -0.99998199939727783,
        -1
      ],
      "type": "VEC3"
    },
    {
      "bufferView": 1,
      "byteOffset": 524256,
      "componentType": 5126,
      "count": 65532,
      "max": [
        0.9936366081237793,
        0.99415880441665649
      ],
      "min": [
        0.0046108383685350418,
        0.0034816577099263668
      ],
      "type": "VEC2"
    },
    {
      "bufferView": 0,
      "byteOffset": 1430940,
      "componentType": 5125,
      "count": 358065,
      "max": [
        65531
      ],
      "min": [
        0
      ],
      "type": "SCALAR"
    },
    {
      "bufferView": 2,
      "byteOffset": 3145536,
      "componentType": 5126,
      "count": 31128,
      "max": [
        2.4486134052276611,
        2.5730826854705811,
        2.394270658493042
      ],
      "min": [
        -2.4326181411743164,
        0.0040120421908795834,
        -2.498544454574585
      ],
      "type": "VEC3"
    },
    {
      "bufferView": 2,
      "byteOffset": 3519072,
      "componentType": 5126,
      "count": 31128,
      "max": [
        0.99998688697814941,
        0.99999558925628662,
        0.99998772144317627
      ],
      "min": [
        -0.99997043609619141,
        -0.99998199939727783,
        -0.99997580051422119
      ],
      "type": "VEC3"
    },
    {
      "bufferView": 1,
      "byteOffset": 1048512,
      "componentType": 5126,
      "count": 31128,
      "max": [
        0.99974066019058228,
        0.99569922685623169
      ],
      "min": [
        0.0022373546380549669,
        0.0049529271200299263
      ],
      "type": "VEC2"
    },
    {
      "bufferView": 0,
      "byteOffset": 2863200,
      "componentType": 5125,
      "count": 142536,
      "max": [
        31127
      ],
      "min": [
        0
      ],
      "type": "SCALAR"
    }
  ],
  "asset": {
    "extras": {
      "author": "VHM777 (https://sketchfab.com/gizacorp01)",
      "license": "CC-BY-4.0 (http://creativecommons.org/licenses/by/4.0/)",
      "source": "https://sketchfab.com/3d-models/royal-crown-36edb23a404349709c9da94f136351e9",
      "title": "Royal Crown"
    },
    "generator": "Sketchfab-8.42.0",
    "version": "2.0"
  },
  "bufferViews": [
    {
      "buffer": 0,
      "byteLength": 3433344,
      "byteOffset": 0,
      "name": "floatBufferViews",
      "target": 34963
    },
    {
      "buffer": 0,
      "byteLength": 1297536,
      "byteOffset": 3433344,
      "byteStride": 8,
      "name": "floatBufferViews",
      "target": 34962
    },
    {
      "buffer": 0,
      "byteLength": 3892608,
      "byteOffset": 4730880,
      "byteStride": 12,
      "name": "floatBufferViews",
      "target": 34962
    }
  ],
  "buffers": [
    {
      "byteLength": 8623488,
      "uri": "scene.bin"
    }
  ],
  "extensionsRequired": [
    "KHR_materials_pbrSpecularGlossiness"
  ],
  "extensionsUsed": [
    "KHR_materials_pbrSpecularGlossiness"
  ],
  "images": [
    {
      "uri": "textures/Material_emissive.png"
    }
  ],
  "materials": [
    {
      "doubleSided": true,
      "emissiveFactor": [
        0.86832604978149353,
        0.86832604978149353,
        0.86832604978149353
      ],
      "emissiveTexture": {
        "index": 0,
        "texCoord": 0
      },
      "extensions": {
        "KHR_materials_pbrSpecularGlossiness": {
          "diffuseFactor": [
            1,
            1,
            1,
            1
          ],
          "glossinessFactor": 0,
          "specularFactor": [
            1,
            1,
            1
          ]
        }
      },
      "name": "Material"
    }
  ],
  "meshes": [
    {
      "primitives": [
        {
          "attributes": {
            "NORMAL": 1,
            "POSITION": 0,
            "TEXCOORD_0": 2
          },
          "indices": 3,
          "material": 0,
          "mode": 4
        }
      ]
    },
    {
      "primitives": [
        {
          "attributes": {
            "NORMAL": 5,
            "POSITION": 4,
            "TEXCOORD_0": 6
          },
          "indices": 7,
          "material": 0,
          "mode": 4
        }
      ]
    },
    {
      "primitives": [
        {
          "attributes": {
            "NORMAL": 9,
            "POSITION": 8,
            "TEXCOORD_0": 10
          },
          "indices": 11,
          "material": 0,
          "mode": 4
        }
      ]
    }
  ],
  "nodes": [
    {
      "children": [
        1
      ],
      "name": "RootNode (gltf orientation matrix)",
      "rotation": [
        -0.70710678118654746,
        -0,
        -0,
        0.70710678118654757
      ]
    },
    {
      "children": [
        2
      ],
      "matrix": [
        2.2204460492503131e-16,
        1,
        -1.6081226229577292e-16,
        0,
        -1,
        2.2204460492503131e-16,
        -1.2325951644078309e-32,
        0,
        1.2325951644078309e-32,
        1.6081226229577292e-16,
        1,
        0,
        0.071967877447605133,
        0.032309491187334061,
        0,
        1
      ],
      "name": "RootNode (model correction matrix)"
    },
    {
      "children": [
        3
      ],
      "name": "root"
    },
    {
      "children": [
        4
      ],
      "matrix": [
        1,
        0,
        0,
        0,
        0,
        2.2204460492503131e-16,
        1,
        0,
        0,
        -1,
        2.2204460492503131e-16,
        0,
        0,
        0,
        0,
        1
      ],
      "name": "GLTF_SceneRootNode"
    },
    {
      "children": [
        5,
        6,
        7
      ],
      "matrix": [
        1,
        0,
        0,
        0,
        0,
        1,
        0,
        0,
        0,
        0,
        1,
        0,
        0.01525425910949707,
        0,
        0,
        1
      ],
      "name": "Crown 01-Stones.combined_1"
    },
    {
      "mesh": 0,
      "name": ""
    },
    {
      "mesh": 1,
      "name": ""
    },
    {
      "mesh": 2,
      "name": ""
    }
  ],
  "samplers": [
    {
      "magFilter": 9729,
      "minFilter": 9987,
      "wrapS": 10497,
      "wrapT": 10497
    }
  ],
  "scene": 0,
  "scenes": [
    {
      "name": "OSG_Scene",
      "nodes": [
        0
      ]
    }
  ],
  "textures": [
    {
      "sampler": 0,
      "source": 0
    }
  ]
}

