{
  "accessors": [
    {
      "bufferView": 2,
      "componentType": 5126,
      "count": 1280,
      "max": [
        1.0696099996566772,
        0.6876199841499329,
        2.1573801040649414
      ],
      "min": [
        -2.000610113143921,
        -0.6876199841499329,
        0.0
      ],
      "type": "VEC3"
    },
    {
      "bufferView": 2,
      "byteOffset": 15360,
      "componentType": 5126,
      "count": 1280,
      "max": [
        0.9871265888214111,
        0.9859899878501892,
        1.0
      ],
      "min": [
        -0.9905520081520081,
        -0.9859899878501892,
        -1.0
      ],
      "type": "VEC3"
    },
    {
      "bufferView": 1,
      "componentType": 5126,
      "count": 1280,
      "max": [
        0.960640013217926,
        0.6970900297164917
      ],
      "min": [
        0.048259999603033066,
        0.05107999965548515
      ],
      "type": "VEC2"
    },
    {
      "bufferView": 0,
      "componentType": 5125,
      "count": 1806,
      "type": "SCALAR"
    }
  ],
  "asset": {
    "extras": {
      "author": "VitSh (https://sketchfab.com/VitSh)",
      "license": "CC-BY-4.0 (http://creativecommons.org/licenses/by/4.0/)",
      "source": "https://sketchfab.com/3d-models/bear-27ce91e2f2754ca8bb0b00fe2644ae39",
      "title": "Bear"
    },
    "generator": "Sketchfab-12.65.0",
    "version": "2.0"
  },
  "bufferViews": [
    {
      "buffer": 0,
      "byteLength": 7224,
      "name": "floatBufferViews",
      "target": 34963
    },
    {
      "buffer": 0,
      "byteLength": 10240,
      "byteOffset": 7224,
      "byteStride": 8,
      "name": "floatBufferViews",
      "target": 34962
    },
    {
      "buffer": 0,
      "byteLength": 30720,
      "byteOffset": 17464,
      "byteStride": 12,
      "name": "floatBufferViews",
      "target": 34962
    }
  ],
  "buffers": [
    {
      "byteLength": 48184,
      "uri": "scene.bin"
    }
  ],
  "images": [
    {
      "uri": "textures/color_baseColor.png"
    }
  ],
  "materials": [
    {
      "doubleSided": true,
      "name": "color",
      "pbrMetallicRoughness": {
        "baseColorFactor": [
          0.7791411043,
          0.7791411043,
          0.7791411043,
          1.0
        ],
        "baseColorTexture": {
          "index": 0
        },
        "metallicFactor": 0.4417177914,
        "roughnessFactor": 0.6012269939
      }
    }
  ],
  "meshes": [
    {
      "name": "Plane_0",
      "primitives": [
        {
          "attributes": {
            "NORMAL": 1,
            "POSITION": 0,
            "TEXCOORD_0": 2
          },
          "indices": 3,
          "material": 0,
          "mode": 4
        }
      ]
    }
  ],
  "nodes": [
    {
      "children": [
        1
      ],
      "matrix": [
        1.0,
        0.0,
        0.0,
        0.0,
        0.0,
        2.220446049250313e-16,
        -1.0,
        0.0,
        0.0,
        1.0,
        2.220446049250313e-16,
        0.0,
        0.0,
        0.0,
        0.0,
        1.0
      ],
      "name": "Sketchfab_model"
    },
    {
      "children": [
        2,
        4,
        6
      ],
      "name": "Root"
    },
    {
      "children": [
        3
      ],
      "name": "Plane"
    },
    {
      "mesh": 0,
      "name": "Plane_0"
    },
    {
      "children": [
        5
      ],
      "matrix": [
        0.7915099999999999,
        0.57406,
        -0.20967,
        0.0,
        -0.31749000000000005,
        0.6793800000000001,
        0.6615500000000001,
        0.0,
        0.52222,
        -0.45705,
        0.7200000000000001,
        0.0,
        0.7458400000000002,
        -1.87874,
        2.67072,
        1.0
      ],
      "name": "Hemi"
    },
    {
      "name": "Hemi"
    },
    {
      "children": [
        7
      ],
      "matrix": [
        0.6549000000000001,
        -0.7373700000000001,
        0.16550000000000004,
        0.0,
        0.32760000000000006,
        0.47436000000000006,
        0.81711,
        0.0,
        -0.6810100000000001,
        -0.48091000000000006,
        0.55222,
        0.0,
        -2.84475,
        -1.54908,
        2.929,
        1.0
      ],
      "name": "Hemi.001"
    },
    {
      "name": "Hemi.001"
    }
  ],
  "samplers": [
    {
      "magFilter": 9729,
      "minFilter": 9987,
      "wrapS": 10497,
      "wrapT": 10497
    }
  ],
  "scene": 0,
  "scenes": [
    {
      "name": "Sketchfab_Scene",
      "nodes": [
        0
      ]
    }
  ],
  "textures": [
    {
      "sampler": 0,
      "source": 0
    }
  ]
}
